<svg width="34" height="34" viewBox="0 0 34 34" fill="none" xmlns="http://www.w3.org/2000/svg">
<circle cx="17" cy="17" r="17" fill="black"/>
<circle cx="17" cy="17" r="5" fill="#C74AE3"/>
<path d="M19.4412 23.5626C18.6811 23.8454 17.8586 24 17 24C13.134 24 10 20.866 10 17C10 13.134 13.134 10 17 10C20.866 10 24 13.134 24 17C24 18.6688 23.416 20.2013 22.4412 21.4041L25.9881 24.951C27.8623 22.8339 29 20.0498 29 17C29 10.3726 23.6274 5 17 5C10.3726 5 5 10.3726 5 17C5 23.6274 10.3726 29 17 29C19.2571 29 21.3686 28.3769 23.1719 27.2932L19.4412 23.5626Z" fill="#00E8B5"/>
</svg>
