<svg width="18" height="18" viewBox="0 0 18 18" fill="none" xmlns="http://www.w3.org/2000/svg">
<g clip-path="url(#clip0_1919_209335)">
<path fill-rule="evenodd" clip-rule="evenodd" d="M10.1088 6.41196C10.6594 6.1374 11.36 5.73324 12.0615 5.1795C12.2094 5.48664 12.2256 5.75466 12.1494 5.97108C12.0954 6.1236 11.9936 6.25626 11.8598 6.3618C11.7149 6.47586 11.534 6.5589 11.3339 6.60378C10.9544 6.68928 10.5112 6.63936 10.1088 6.41196ZM10.2043 9.22512L10.9331 9.64614C9.44489 10.4803 9.04031 12.0291 8.55971 13.5377C8.07917 12.0291 7.67453 10.4803 6.18635 9.64614L6.91523 9.22512C6.98574 9.19847 7.04601 9.15019 7.08739 9.08719C7.12878 9.0242 7.14917 8.94971 7.14563 8.87442C7.07885 7.4616 7.46033 6.83682 7.97489 6.44454C8.15945 6.30402 8.36093 6.23346 8.55971 6.23346C8.75849 6.23346 8.95997 6.30402 9.14459 6.44454C9.65915 6.83682 10.0406 7.4616 9.97385 8.87442C9.97031 8.94971 9.9907 9.0242 10.0321 9.08719C10.0735 9.15019 10.1337 9.19847 10.2043 9.22512ZM8.55971 0C9.40223 0.02262 10.2469 0.18618 10.9799 0.50436C11.4875 0.72498 11.9611 1.0164 12.39 1.36488C12.5837 1.5222 12.7432 1.67418 12.9188 1.84914C13.3927 1.86552 14.0851 1.33914 14.4066 0.8466C13.8533 2.6604 11.3287 4.80234 9.58079 5.62194C9.58007 5.62164 9.57959 5.62122 9.57905 5.62086C9.26537 5.38134 8.91257 5.26158 8.55971 5.26158C8.20685 5.26158 7.85411 5.38134 7.54043 5.62086C7.53989 5.62116 7.53941 5.6217 7.53869 5.62194C5.79077 4.80234 3.26615 2.6604 2.71289 0.8466C3.03431 1.33914 3.72677 1.86552 4.20059 1.84914C4.37633 1.67424 4.53581 1.5222 4.72943 1.36488C5.15831 1.0164 5.63195 0.72498 6.13955 0.50436C6.87263 0.18618 7.71725 0.02262 8.55971 0ZM7.01063 6.41196C6.46007 6.1374 5.75939 5.73324 5.05799 5.1795C4.91009 5.48664 4.89389 5.75466 4.97003 5.97108C5.02409 6.1236 5.12585 6.25626 5.25959 6.3618C5.40455 6.47586 5.58551 6.5589 5.78555 6.60378C6.16511 6.68928 6.60821 6.63936 7.01063 6.41196Z" fill="white"/>
<path fill-rule="evenodd" clip-rule="evenodd" d="M12.83 4.50096C13.2162 4.11126 13.5564 3.67992 13.83 3.29502L13.969 3.55656C14.4164 4.45158 14.6488 5.343 14.6488 6.3462L14.6478 7.93812L14.6562 8.76336C14.6886 10.7893 15.127 12.8391 16.12 14.7149L14.0424 13.0396L12.5723 15.4252L11.0279 13.9713L8.56 17.9762L6.09208 13.9714L4.54774 15.4252L3.07768 13.0397L1 14.715C1.993 12.8392 2.43136 10.7894 2.46382 8.76342L2.47222 7.93818L2.47126 6.34626C2.47126 5.343 2.70364 4.45158 3.15112 3.55662L3.29002 3.29508C3.56362 3.67998 3.90382 4.11126 4.29004 4.50102L4.16944 4.75152C3.93514 5.23806 3.85756 5.78208 4.04008 6.29946C4.15774 6.6327 4.37248 6.91848 4.64932 7.13664C4.91812 7.3485 5.23624 7.4913 5.5693 7.5663C5.78626 7.61514 6.0073 7.63524 6.2269 7.6284C6.17566 7.91886 6.15328 8.22012 6.15184 8.52708L4.192 9.65904L5.70436 10.5068C5.82524 10.5746 5.94031 10.6522 6.0484 10.7389C7.29526 11.8584 8.0449 15.1702 8.56006 16.7879C9.07528 15.1702 9.82486 11.8584 11.0718 10.7389C11.1799 10.6522 11.2949 10.5745 11.4158 10.5068L12.9282 9.65904L10.9683 8.52708C10.9668 8.22012 10.9445 7.91886 10.8932 7.6284C11.1128 7.63524 11.3339 7.61514 11.5508 7.5663C11.8839 7.4913 12.2021 7.3485 12.4708 7.13664C12.7476 6.91848 12.9624 6.6327 13.08 6.29946C13.2626 5.78208 13.1849 5.23812 12.9507 4.75152L12.8301 4.50102L12.83 4.50096Z" fill="white"/>
</g>
<defs>
<clipPath id="clip0_1919_209335">
<rect width="15.12" height="18" fill="white" transform="translate(1)"/>
</clipPath>
</defs>
</svg>
